<svg xmlns="http://www.w3.org/2000/svg" width="295.298" height="96.595" viewBox="168.001 252.715 196.865 64.397"><g data-name="Group 124"><path d="M364.866 308.409c0 4.806-3.895 8.703-8.7 8.703H176.703a8.704 8.704 0 0 1-8.702-8.703v-46.992a8.703 8.703 0 0 1 8.702-8.702h179.463c4.805 0 8.7 3.897 8.7 8.702v46.992Z" stroke-linejoin="round" stroke-linecap="round" stroke-width="2" stroke="#fff" fill="transparent" data-name="Path 202"/><g data-name="Group 120"><path d="M219.338 295.281c-1.043 2.31-1.541 3.34-2.883 5.383-1.873 2.85-4.511 6.4-7.78 6.43-2.906.026-3.652-1.892-7.595-1.87-3.943.021-4.766 1.903-7.673 1.876-3.27-.03-5.77-3.235-7.642-6.085-5.236-7.97-5.783-17.323-2.554-22.296 2.295-3.533 5.914-5.602 9.318-5.602 3.466 0 5.644 1.901 8.51 1.901 2.779 0 4.473-1.904 8.48-1.904 3.028 0 6.237 1.649 8.524 4.501-7.492 4.105-6.275 14.806 1.295 17.666Z" fill="#fff" fill-rule="evenodd" data-name="Path 203"/><g data-name="Group 119"><path d="M206.479 269.93c1.455-1.868 2.561-4.507 2.16-7.204-2.377.164-5.16 1.677-6.784 3.649-1.474 1.791-2.69 4.447-2.217 7.027 2.596.08 5.282-1.47 6.84-3.472Z" fill="#fff" fill-rule="evenodd" data-name="Path 204"/></g></g><g data-name="Group 123"><g data-name="Group 121"><path d="m235.288 278.599-7.5 22.076h3.434l2.24-6.778h7.261l2.303 6.778h3.529l-7.532-22.076h-3.735Zm1.78 3.63c.252.985.526 2.008.877 3.114l2.021 5.854h-5.752l1.993-5.892c.303-.955.592-1.987.86-3.076Z" fill="#fff" fill-rule="evenodd" data-name="Path 205"/><path d="M256.26 284.322c-2.275 0-4.097.878-5.31 2.547l-.133-2.195h-3.056l.019.28c.09 1.368.127 2.874.127 5.036v17.015h3.34v-7.94c1.037 1.24 2.691 1.962 4.566 1.962 1.953 0 3.751-.765 5.061-2.152 1.464-1.546 2.235-3.77 2.235-6.425 0-2.346-.67-4.375-1.94-5.866a6.355 6.355 0 0 0-4.909-2.262Zm-.832 2.765c2.977 0 4.31 2.758 4.31 5.492 0 3.525-1.7 5.715-4.437 5.715a4.05 4.05 0 0 1-3.935-3.1 4.265 4.265 0 0 1-.118-1.081v-2.686c0-.243.054-.539.106-.824.016-.092.034-.183.048-.272.498-1.91 2.151-3.244 4.026-3.244Z" fill="#fff" fill-rule="evenodd" data-name="Path 206"/><path d="M273.46 284.322c-2.275 0-4.097.878-5.31 2.547l-.134-2.195h-3.054l.017.28c.09 1.37.129 2.874.129 5.036v17.015h3.34v-7.94c1.036 1.24 2.69 1.962 4.564 1.962 1.952 0 3.751-.765 5.064-2.152 1.46-1.546 2.233-3.77 2.233-6.425 0-2.346-.671-4.375-1.941-5.866a6.353 6.353 0 0 0-4.908-2.262Zm-.832 2.765c2.976 0 4.31 2.758 4.31 5.492 0 3.525-1.702 5.715-4.437 5.715a4.05 4.05 0 0 1-3.935-3.1 4.262 4.262 0 0 1-.118-1.081v-2.686c0-.245.054-.541.106-.827.017-.09.034-.18.049-.269.496-1.91 2.15-3.244 4.025-3.244Z" fill="#fff" fill-rule="evenodd" data-name="Path 207"/><path d="M295.007 287.953c-3.117-1.207-4.116-2.157-4.116-3.91 0-1.477 1.174-2.967 3.797-2.967 2.163 0 3.547.753 3.92.984l.283.175.943-2.787-.187-.11c-.559-.327-2.154-1.09-4.863-1.09-4.26 0-7.235 2.514-7.235 6.113 0 2.903 1.863 4.932 5.863 6.386 2.834 1.06 3.89 2.145 3.89 4.006 0 2.105-1.628 3.412-4.246 3.412-1.705 0-3.46-.497-4.814-1.365l-.29-.186-.897 2.852.165.11c1.261.841 3.635 1.45 5.645 1.45 5.74 0 7.776-3.5 7.776-6.497 0-3.09-1.632-4.996-5.634-6.576Z" fill="#fff" fill-rule="evenodd" data-name="Path 208"/><path d="m306.654 280.87-3.277 1.029v2.774h-2.398v2.67h2.398v8.177c0 1.976.379 3.362 1.157 4.238.747.818 1.894 1.269 3.232 1.269 1.262 0 2.16-.25 2.581-.4l.188-.066-.16-2.674-.321.098c-.422.13-.856.18-1.554.18-1.294 0-1.846-.819-1.846-2.741v-8.081h4.029v-2.67h-4.03v-3.803Z" fill="#fff" fill-rule="evenodd" data-name="Path 209"/><path d="M318.96 284.322c-4.673 0-7.937 3.488-7.937 8.48 0 4.843 3.158 8.225 7.681 8.225h.031c3.824 0 7.937-2.664 7.937-8.513 0-2.378-.735-4.42-2.128-5.907-1.401-1.494-3.333-2.285-5.584-2.285Zm-.096 2.637c3.004 0 4.372 2.929 4.372 5.652 0 3.348-1.866 5.778-4.436 5.778h-.032c-2.533 0-4.372-2.39-4.372-5.681 0-2.861 1.382-5.75 4.468-5.75Z" fill="#fff" fill-rule="evenodd" data-name="Path 210"/><path d="m336.903 284.477-.201-.051a3.221 3.221 0 0 0-.83-.104c-1.748 0-3.316 1.029-4.188 2.689l-.098-2.337h-2.998l.02.28c.089 1.322.126 2.807.126 4.81l-.032 10.911h3.34v-8.512c0-.464.033-.902.093-1.295.377-2.044 1.756-3.366 3.514-3.366.342 0 .611.028.896.056l.358.037v-3.118Z" fill="#fff" fill-rule="evenodd" data-name="Path 211"/><path d="M344.412 284.29c-4.446 0-7.552 3.553-7.552 8.64 0 4.898 3.09 8.065 7.872 8.065 2.514 0 4.264-.552 5.288-1.015l.201-.09-.642-2.49-.279.113c-.91.37-2.12.748-4.184.748-1.451 0-4.798-.478-5.003-4.843l10.78.033.044-.213c.068-.34.1-.797.1-1.394 0-3.485-1.734-7.554-6.625-7.554Zm-.223 2.541c1.018 0 1.843.315 2.452.936.961.978 1.13 2.418 1.15 3.109h-7.617c.31-1.929 1.517-4.045 4.015-4.045Z" fill="#fff" fill-rule="evenodd" data-name="Path 212"/></g><g data-name="Group 122"><path d="M227.788 263.518c.93-.124 2.015-.216 3.204-.216 2.153 0 3.686.434 4.703 1.286 1.05.853 1.653 2.077 1.653 3.767 0 1.705-.603 3.1-1.67 4.061-1.103.977-2.895 1.505-5.151 1.505-1.085 0-1.964-.031-2.739-.125v-10.278Zm1.516 9.255c.379.062.93.062 1.516.062 3.204.015 4.943-1.612 4.943-4.433.017-2.496-1.533-4.03-4.702-4.03-.775 0-1.36.062-1.757.138v8.263Z" fill="#fff" fill-rule="evenodd" data-name="Path 213"/><path d="M242.72 273.998c-2.24 0-3.996-1.488-3.996-3.86 0-2.511 1.843-3.984 4.134-3.984 2.395 0 4.013 1.565 4.013 3.844 0 2.791-2.153 4-4.133 4h-.018Zm.052-1.023c1.447 0 2.533-1.225 2.533-2.93 0-1.271-.707-2.868-2.498-2.868-1.775 0-2.55 1.488-2.55 2.914 0 1.644 1.034 2.884 2.498 2.884h.017Z" fill="#fff" fill-rule="evenodd" data-name="Path 214"/><path d="m249.27 266.324 1.119 3.799c.224.837.448 1.627.603 2.402h.052c.189-.76.465-1.565.74-2.387l1.361-3.814h1.275l1.292 3.751c.31.885.551 1.69.74 2.45h.052c.138-.76.362-1.55.638-2.434l1.187-3.767h1.5l-2.687 7.503h-1.379l-1.274-3.58c-.293-.853-.534-1.597-.741-2.48h-.034c-.207.898-.465 1.689-.759 2.495l-1.343 3.565h-1.378l-2.515-7.503h1.55Z" fill="#fff" fill-rule="evenodd" data-name="Path 215"/><path d="M261.345 268.355c0-.79-.017-1.41-.069-2.03h1.344l.086 1.225h.035c.413-.699 1.377-1.396 2.755-1.396 1.154 0 2.946.62 2.946 3.193v4.48h-1.516v-4.325c0-1.21-.5-2.232-1.93-2.232-.98 0-1.757.636-2.032 1.395-.068.17-.103.418-.103.636v4.526h-1.516v-5.472Z" fill="#fff" fill-rule="evenodd" data-name="Path 216"/><path d="M270.905 262.82h1.516v11.007h-1.516v-11.006Z" fill="#fff" fill-rule="evenodd" data-name="Path 217"/><path d="M278.33 273.998c-2.24 0-3.997-1.488-3.997-3.86 0-2.511 1.843-3.984 4.134-3.984 2.394 0 4.013 1.565 4.013 3.844 0 2.791-2.153 4-4.133 4h-.017Zm.05-1.023c1.448 0 2.533-1.225 2.533-2.93 0-1.271-.706-2.868-2.497-2.868-1.775 0-2.55 1.488-2.55 2.914 0 1.644 1.033 2.884 2.498 2.884h.017Z" fill="#fff" fill-rule="evenodd" data-name="Path 218"/><path d="M290.267 272.03c0 .65.035 1.285.12 1.797h-1.36l-.138-.945h-.051c-.448.589-1.362 1.116-2.55 1.116-1.687 0-2.549-1.07-2.549-2.155 0-1.814 1.791-2.806 5.012-2.79v-.155c0-.62-.189-1.752-1.894-1.736-.793 0-1.602.2-2.188.557l-.345-.914c.69-.387 1.705-.65 2.757-.65 2.566 0 3.186 1.564 3.186 3.068v2.806Zm-1.48-2.032c-1.655-.03-3.532.233-3.532 1.69 0 .9.654 1.303 1.412 1.303 1.103 0 1.81-.62 2.05-1.256.052-.14.07-.295.07-.435v-1.302Z" fill="#fff" fill-rule="evenodd" data-name="Path 219"/><path d="M299.896 262.82v9.07c0 .666.018 1.425.07 1.937h-1.361l-.069-1.302h-.034c-.465.837-1.465 1.473-2.825 1.473-2.016 0-3.584-1.535-3.584-3.814-.017-2.511 1.723-4.03 3.738-4.03 1.293 0 2.154.543 2.516 1.132h.034v-4.465h1.515Zm-1.515 6.558c0-.186-.017-.403-.07-.589-.223-.852-1.05-1.566-2.187-1.566-1.567 0-2.498 1.24-2.498 2.884 0 1.534.845 2.79 2.464 2.79 1.017 0 1.947-.62 2.221-1.628.053-.185.07-.372.07-.588v-1.303Z" fill="#fff" fill-rule="evenodd" data-name="Path 220"/><path d="M309.456 273.998c-2.238 0-3.996-1.488-3.996-3.86 0-2.511 1.844-3.984 4.134-3.984 2.395 0 4.014 1.565 4.014 3.844 0 2.791-2.154 4-4.133 4h-.019Zm.053-1.023c1.446 0 2.531-1.225 2.531-2.93 0-1.271-.705-2.868-2.497-2.868-1.774 0-2.549 1.488-2.549 2.914 0 1.644 1.033 2.884 2.497 2.884h.018Z" fill="#fff" fill-rule="evenodd" data-name="Path 221"/><path d="M315.521 268.355c0-.79-.017-1.41-.069-2.03h1.344l.086 1.225h.034c.414-.699 1.378-1.396 2.756-1.396 1.154 0 2.946.62 2.946 3.193v4.48h-1.516v-4.325c0-1.21-.5-2.232-1.93-2.232-.98 0-1.757.636-2.032 1.395-.069.17-.104.418-.104.636v4.526h-1.515v-5.472Z" fill="#fff" fill-rule="evenodd" data-name="Path 222"/><path d="M330.56 264.527v1.797h2.169v1.039h-2.17v4.046c0 .93.293 1.457 1.137 1.457.413 0 .655-.03.879-.093l.069 1.039a4.543 4.543 0 0 1-1.344.186c-.706 0-1.275-.217-1.637-.574-.414-.418-.585-1.085-.585-1.969v-4.092h-1.292v-1.039h1.292v-1.38l1.481-.417Z" fill="#fff" fill-rule="evenodd" data-name="Path 223"/><path d="M334.435 262.82h1.515v4.683h.036c.24-.388.619-.744 1.085-.961.448-.248.98-.388 1.55-.388 1.119 0 2.91.62 2.91 3.209v4.464h-1.515v-4.309c0-1.225-.5-2.232-1.93-2.232-.98 0-1.738.62-2.032 1.364-.086.186-.104.387-.104.65v4.527h-1.515v-11.006Z" fill="#fff" fill-rule="evenodd" data-name="Path 224"/><path d="M344.856 270.308c.036 1.845 1.327 2.605 2.843 2.605 1.085 0 1.757-.171 2.309-.373l.276.961c-.535.217-1.466.481-2.791.481-2.55 0-4.1-1.535-4.1-3.782 0-2.279 1.499-4.062 3.926-4.062 2.723 0 3.428 2.155 3.428 3.535 0 .279-.016.496-.05.65l-5.84-.015Zm4.428-.976c.016-.853-.396-2.217-2.085-2.217-1.55 0-2.205 1.271-2.325 2.217h4.41Z" fill="#fff" fill-rule="evenodd" data-name="Path 225"/></g></g></g></svg>