<svg xmlns="http://www.w3.org/2000/svg" width="295.298" height="96.595" viewBox="168.001 178 196.865 64.397"><g data-name="Group 118"><path d="M364.866 233.694c0 4.806-3.895 8.703-8.7 8.703H176.703a8.704 8.704 0 0 1-8.702-8.703v-46.992a8.703 8.703 0 0 1 8.702-8.702h179.463c4.805 0 8.7 3.897 8.7 8.702v46.992Z" stroke-linejoin="round" stroke-linecap="round" stroke-width="2" stroke="#fff" fill="transparent" data-name="Path 172"/><g data-name="PLAY"><g data-name="Group 113" transform="translate(182.767 191.076)" clip-path="url(&quot;#a&quot;)"><path d="M1109.373 769.488V813.097l21.99-21.804-21.99-21.805Z" fill-rule="evenodd" fill="url(&quot;#b&quot;)" transform="translate(-1109.373 -770.166)" data-name="Path 173"/><path d="m1137.27 785.174-8.877-5.125-19.02-10.982v.16l21.99 21.804 5.907-5.857Z" fill-rule="evenodd" fill="url(&quot;#c&quot;)" transform="translate(-1109.373 -769.904)" data-name="Path 174"/><path d="M1109.373 849.077v.16l19.02-10.983 8.876-5.125-5.906-5.856-21.99 21.804Z" fill-rule="evenodd" fill="url(&quot;#d&quot;)" transform="translate(-1109.373 -806.146)" data-name="Path 175"/><path d="m1173.555 811.752-5.906 5.857 5.906 5.856 10.145-5.856-10.145-5.857Z" fill-rule="evenodd" fill="url(&quot;#e&quot;)" transform="translate(-1145.659 -796.482)" data-name="Path 176"/></g></g><g data-name="Group 114"><path d="M321.21 220.727c-.825 0-1.579-.152-2.261-.457a4.266 4.266 0 0 1-1.72-1.405h-.138c.093.74.139 1.442.139 2.105v5.22h-1.92v-18.377h1.561l.266 1.736h.093c.494-.694 1.069-1.196 1.725-1.504.655-.309 1.408-.463 2.256-.463 1.682 0 2.98.575 3.894 1.724.914 1.15 1.371 2.762 1.371 4.837 0 2.083-.465 3.7-1.393 4.855-.93 1.153-2.22 1.729-3.872 1.729Zm-.277-11.514c-1.296 0-2.233.36-2.812 1.077-.578.717-.876 1.86-.891 3.425v.428c0 1.782.297 3.057.891 3.825.595.767 1.547 1.15 2.858 1.15 1.096 0 1.955-.442 2.576-1.33.62-.886.93-2.11.93-3.668 0-1.581-.31-2.795-.93-3.64-.621-.844-1.496-1.267-2.622-1.267Z" fill="#f9f9f9" fill-rule="evenodd" data-name="Path 178"/><path d="M330.924 220.496h-1.921V202.49h1.92v18.006Z" fill="#f9f9f9" fill-rule="evenodd" data-name="Path 179"/><path d="m341.967 220.496-.382-1.806h-.093c-.632.796-1.263 1.334-1.892 1.615-.628.282-1.413.422-2.354.422-1.257 0-2.243-.324-2.957-.972-.713-.648-1.07-1.57-1.07-2.765 0-2.56 2.048-3.903 6.144-4.027l2.153-.07v-.787c0-.995-.214-1.73-.643-2.204-.427-.475-1.113-.712-2.054-.712-1.057 0-2.253.324-3.587.972l-.59-1.469a9.027 9.027 0 0 1 2.054-.798 8.892 8.892 0 0 1 2.24-.29c1.511 0 2.631.335 3.361 1.006.728.672 1.093 1.748 1.093 3.23v8.655h-1.423Zm-4.34-1.354c1.196 0 2.135-.328 2.819-.983.682-.656 1.024-1.574 1.024-2.755v-1.145l-1.922.08c-1.527.055-2.628.292-3.304.713-.674.42-1.012 1.074-1.012 1.961 0 .694.21 1.223.631 1.585.42.363 1.008.544 1.765.544Z" fill="#f9f9f9" fill-rule="evenodd" data-name="Path 180"/><path d="M344.505 207.813h2.06l2.777 7.233c.609 1.651.987 2.843 1.135 3.576h.092c.1-.394.311-1.067.63-2.02.32-.953 1.368-3.882 3.142-8.789h2.06l-5.45 14.442c-.54 1.427-1.171 2.44-1.893 3.038-.721.598-1.607.896-2.655.896a7.764 7.764 0 0 1-1.736-.196v-1.539c.424.093.899.139 1.423.139 1.32 0 2.26-.74 2.824-2.222l.706-1.805-5.115-12.753Z" fill="#f9f9f9" fill-rule="evenodd" data-name="Path 181"/></g><g data-name="Group 116"><path d="M285.628 208.992c.61.504 1.882 1.564 1.882 3.581 0 1.962-1.114 2.892-2.228 3.767-.345.344-.743.717-.743 1.301 0 .582.398.9.69 1.14l.956.741c1.167.982 2.227 1.884 2.227 3.715 0 2.494-2.414 5.013-6.976 5.013-3.847 0-5.703-1.83-5.703-3.794 0-.954.476-2.306 2.043-3.236 1.643-1.008 3.873-1.14 5.066-1.22-.373-.478-.796-.982-.796-1.803 0-.45.133-.716.266-1.036a9.653 9.653 0 0 1-.85.054c-2.811 0-4.403-2.096-4.403-4.164 0-1.22.557-2.574 1.697-3.555 1.513-1.247 3.316-1.46 4.75-1.46h5.463l-1.698.956h-1.643Zm-1.884 11.778c-.212-.028-.346-.028-.61-.028-.239 0-1.673.055-2.786.427-.583.21-2.28.847-2.28 2.731 0 1.883 1.83 3.238 4.669 3.238 2.545 0 3.9-1.222 3.9-2.866 0-1.355-.877-2.069-2.893-3.502Zm.77-5.04c.609-.611.661-1.459.661-1.937 0-1.91-1.14-4.88-3.34-4.88-.691 0-1.434.344-1.858.875-.45.557-.584 1.272-.584 1.963 0 1.777 1.034 4.722 3.316 4.722.664 0 1.378-.319 1.805-.744Z" fill="#f9f9f9" fill-rule="evenodd" data-name="Path 182"/><path d="M268.928 220.346c-4.21 0-6.462-3.285-6.462-6.252 0-3.469 2.833-6.434 6.86-6.434 3.892 0 6.329 3.045 6.329 6.25 0 3.124-2.41 6.436-6.727 6.436Zm3.31-2.145c.636-.848.795-1.907.795-2.941 0-2.33-1.112-6.78-4.396-6.78a3.69 3.69 0 0 0-2.383.902c-1.033.926-1.22 2.092-1.22 3.232 0 2.62 1.298 6.936 4.503 6.936 1.033 0 2.093-.503 2.7-1.349Z" fill="#f9f9f9" fill-rule="evenodd" data-name="Path 183"/><path d="M254.573 220.346c-4.211 0-6.463-3.285-6.463-6.252 0-3.469 2.835-6.434 6.86-6.434 3.893 0 6.33 3.045 6.33 6.25 0 3.124-2.41 6.436-6.727 6.436Zm3.31-2.145c.636-.848.795-1.907.795-2.941 0-2.33-1.112-6.78-4.397-6.78a3.69 3.69 0 0 0-2.383.902c-1.033.926-1.218 2.092-1.218 3.232 0 2.62 1.297 6.936 4.503 6.936 1.033 0 2.092-.503 2.7-1.349Z" fill="#f9f9f9" fill-rule="evenodd" data-name="Path 184"/><path d="m246.087 219.93-3.808.88c-1.545.24-2.929.451-4.392.451-7.35 0-10.145-5.406-10.145-9.64 0-5.164 3.966-9.956 10.757-9.956 1.438 0 2.822.212 4.073.56 1.997.558 2.93 1.25 3.515 1.65l-2.21 2.103-.932.212.666-1.065c-.905-.878-2.557-2.502-5.698-2.502-4.207 0-7.376 3.197-7.376 7.856 0 5.004 3.621 9.717 9.425 9.717 1.706 0 2.583-.345 3.382-.666v-4.286l-4.02.213 2.129-1.146h5.645l-.691.665c-.188.161-.214.215-.267.426a19.07 19.07 0 0 0-.053 1.28v3.249Z" fill="#f9f9f9" fill-rule="evenodd" data-name="Path 185"/><path d="M294.044 219.164c-.88-.08-1.063-.24-1.063-1.279V202.815l.013-.172c.108-.931.374-1.09 1.2-1.57h-3.809l-1.998.958h2.036v.012l-.001-.01v16.439c0 .53-.106.612-.718 1.41h4.713l.985-.584c-.452-.055-.905-.081-1.358-.134Z" fill="#f9f9f9" fill-rule="evenodd" data-name="Path 186"/><path d="M304.878 219.408c-.29.16-.58.346-.87.477-.875.396-1.774.502-2.568.502-.844 0-2.168-.054-3.517-1.031-1.876-1.324-2.696-3.598-2.696-5.58 0-4.098 3.332-6.108 6.055-6.108.952 0 1.932.238 2.725.741 1.321.871 1.665 2.008 1.849 2.616l-6.213 2.513-2.036.16c.66 3.357 2.934 5.312 5.447 5.312 1.348 0 2.327-.475 3.226-.923l-1.402 1.321Zm-2.484-7.88c.501-.185.766-.344.766-.714 0-1.057-1.19-2.274-2.619-2.274-1.059 0-3.04.82-3.04 3.676 0 .449.052.925.08 1.402l4.813-2.09Z" fill="#f9f9f9" fill-rule="evenodd" data-name="Path 187"/><g data-name="Group 115"><path d="M307.43 207.849v1.745h-.211v-1.745h-.578v-.18h1.366v.18h-.577Z" fill="#f9f9f9" fill-rule="evenodd" data-name="Path 188"/><path d="M309.81 209.594v-1.76h-.01l-.538 1.76h-.166l-.542-1.76h-.007v1.76h-.192v-1.926h.33l.49 1.557h.007l.483-1.557H310v1.926h-.19Z" fill="#f9f9f9" fill-rule="evenodd" data-name="Path 189"/></g></g><g data-name="Group 117"><path d="M233.03 196.48h-1.323c0-.182-.125-.697-.376-1.546h-1.91c-.26.835-.39 1.35-.39 1.547h-1.244c0-.108.322-.99.966-2.647.643-1.656.965-2.569.965-2.737h1.563c0 .157.291 1.057.874 2.698.584 1.641.875 2.537.875 2.686Zm-1.91-2.336c-.472-1.422-.707-2.19-.707-2.307h-.066c0 .108-.244.877-.732 2.307h1.505Z" fill="#fbfcfc" fill-rule="evenodd" data-name="Path 190"/><path d="M238.361 196.48h-1.02c0-.113-.38-.71-1.138-1.79-.794-1.138-1.246-1.917-1.356-2.336h-.066c.069.604.103 1.15.103 1.637 0 .681.02 1.511.058 2.49h-1.017c.041-.855.062-1.794.062-2.816 0-1.007-.02-1.862-.062-2.568h1.228c0 .146.34.73 1.021 1.749.725 1.083 1.141 1.818 1.249 2.204h.062c-.066-.615-.1-1.166-.1-1.654 0-.747-.019-1.513-.057-2.299h1.033c-.038.684-.057 1.54-.057 2.568 0 1.036.019 1.975.057 2.816Z" fill="#fbfcfc" fill-rule="evenodd" data-name="Path 191"/><path d="M244.354 193.603c0 .783-.25 1.466-.752 2.05-.502.585-1.205.877-2.109.877-.408 0-.97-.017-1.687-.05.036-.832.054-1.77.054-2.815 0-1.004-.018-1.86-.054-2.568h.724c.118 0 .294-.004.53-.012.233-.008.386-.013.458-.013.995 0 1.716.248 2.164.745.448.496.672 1.091.672 1.786Zm-1.129.178c0-.53-.154-.975-.463-1.338-.308-.363-.78-.544-1.414-.544-.118 0-.28.013-.487.038.027.55.04 1.127.04 1.728 0 .659.015 1.312.042 1.96.179.035.358.053.538.053.592 0 1.031-.184 1.316-.552.286-.368.428-.816.428-1.345Z" fill="#fbfcfc" fill-rule="evenodd" data-name="Path 192"/><path d="M249.88 196.48h-1.224c-.32-.975-.565-1.577-.736-1.807-.171-.228-.447-.343-.827-.343-.16 0-.313.002-.459.005 0 .708.012 1.423.037 2.146h-1.15a66.2 66.2 0 0 0 .055-2.816c0-1.004-.018-1.86-.054-2.568h.715c.083 0 .256-.004.52-.012.262-.008.506-.013.729-.013 1.265 0 1.898.433 1.898 1.299 0 .686-.362 1.164-1.084 1.434v.062c.279.077.522.295.732.651.21.357.492 1.011.848 1.963Zm-1.55-3.803c0-.549-.354-.823-1.06-.823-.258 0-.487.019-.686.058.03.427.046.984.046 1.67.151.006.28.009.385.009.876 0 1.314-.305 1.314-.914Z" fill="#fbfcfc" fill-rule="evenodd" data-name="Path 193"/><path d="M255.806 193.69c0 .846-.259 1.548-.777 2.104a2.522 2.522 0 0 1-1.922.835c-.728 0-1.337-.255-1.828-.767-.49-.511-.736-1.161-.736-1.95 0-.845.26-1.547.778-2.104a2.521 2.521 0 0 1 1.922-.835c.728 0 1.337.255 1.828.765.49.51.735 1.16.735 1.952Zm-1.14.12c0-.577-.148-1.044-.443-1.402-.295-.358-.659-.537-1.092-.537-.402 0-.744.18-1.025.541-.28.361-.422.817-.422 1.369 0 .573.149 1.04.445 1.399.296.36.66.54 1.09.54.401 0 .743-.182 1.025-.544.281-.363.421-.818.421-1.367Z" fill="#fbfcfc" fill-rule="evenodd" data-name="Path 194"/><path d="M258.144 196.48h-1.17c.036-.854.054-1.793.054-2.815 0-1.007-.018-1.862-.054-2.568h1.17c-.036.695-.053 1.55-.053 2.568 0 1.039.017 1.978.053 2.816Z" fill="#fbfcfc" fill-rule="evenodd" data-name="Path 195"/><path d="M264.137 193.603c0 .783-.25 1.466-.752 2.05-.502.585-1.205.877-2.109.877-.408 0-.97-.017-1.687-.05.036-.832.054-1.77.054-2.815 0-1.004-.018-1.86-.054-2.568h.724c.118 0 .295-.004.529-.012.234-.008.387-.013.46-.013.994 0 1.715.248 2.164.745.447.496.671 1.091.671 1.786Zm-1.128.178c0-.53-.155-.975-.463-1.338-.31-.363-.78-.544-1.415-.544a4.33 4.33 0 0 0-.488.038c.028.55.042 1.127.042 1.728 0 .659.013 1.312.041 1.96.18.035.358.053.538.053.592 0 1.031-.184 1.317-.552.285-.368.428-.816.428-1.345Z" fill="#fbfcfc" fill-rule="evenodd" data-name="Path 196"/><path d="M272.088 196.48h-1.323c0-.182-.126-.697-.377-1.546h-1.91c-.26.835-.39 1.35-.39 1.547h-1.243c0-.108.321-.99.965-2.647.644-1.656.965-2.569.965-2.737h1.563c0 .157.292 1.057.875 2.698s.875 2.537.875 2.686Zm-1.91-2.336c-.472-1.422-.708-2.19-.708-2.307h-.066c0 .108-.244.877-.732 2.307h1.505Z" fill="#fbfcfc" fill-rule="evenodd" data-name="Path 197"/><path d="M276.91 192.507c0 .659-.244 1.145-.734 1.46-.489.314-1.089.471-1.8.471a3.1 3.1 0 0 1-.277-.008c0 .518.015 1.201.045 2.05h-1.161c.035-.796.053-1.734.053-2.815 0-.993-.018-1.848-.053-2.568h.719c.102 0 .297-.004.587-.012s.54-.013.752-.013c.524 0 .966.119 1.328.356.361.237.541.597.541 1.08Zm-1.066.227c0-.59-.392-.884-1.175-.884-.196 0-.402.02-.62.062.03.52.046 1.11.046 1.77a3 3 0 0 0 .24.008c1.006 0 1.509-.319 1.509-.956Z" fill="#fbfcfc" fill-rule="evenodd" data-name="Path 198"/><path d="M281.87 192.507c0 .659-.245 1.145-.734 1.46-.49.314-1.09.471-1.801.471-.13 0-.222-.003-.277-.008 0 .518.015 1.201.045 2.05h-1.162c.036-.796.054-1.734.054-2.815 0-.993-.018-1.848-.054-2.568h.72c.102 0 .298-.004.587-.012.29-.008.54-.013.752-.013.524 0 .967.119 1.328.356.36.237.541.597.541 1.08Zm-1.068.227c0-.59-.39-.884-1.174-.884-.195 0-.402.02-.62.062.03.52.045 1.11.045 1.77.07.005.15.008.24.008 1.006 0 1.51-.319 1.51-.956Z" fill="#fbfcfc" fill-rule="evenodd" data-name="Path 199"/><path d="M289.977 193.69c0 .846-.259 1.548-.777 2.104a2.523 2.523 0 0 1-1.923.835c-.728 0-1.337-.255-1.828-.767-.49-.511-.735-1.161-.735-1.95 0-.845.259-1.547.777-2.104a2.522 2.522 0 0 1 1.923-.835c.727 0 1.337.255 1.827.765s.736 1.16.736 1.952Zm-1.141.12c0-.577-.148-1.044-.443-1.402-.295-.358-.659-.537-1.091-.537-.403 0-.745.18-1.026.541-.28.361-.421.817-.421 1.369 0 .573.148 1.04.444 1.399.296.36.66.54 1.09.54.402 0 .744-.182 1.025-.544.28-.363.422-.818.422-1.367Z" fill="#fbfcfc" fill-rule="evenodd" data-name="Path 200"/><path d="M295.581 196.48h-1.021c0-.113-.38-.71-1.137-1.79-.794-1.138-1.246-1.917-1.356-2.336H292c.07.604.104 1.15.104 1.637 0 .681.02 1.511.058 2.49h-1.017a59.06 59.06 0 0 0 .062-2.816c0-1.007-.021-1.862-.062-2.568h1.228c0 .146.34.73 1.02 1.749.726 1.083 1.142 1.818 1.25 2.204h.062c-.067-.615-.1-1.166-.1-1.654 0-.747-.019-1.513-.058-2.299h1.034c-.039.684-.058 1.54-.058 2.568 0 1.036.02 1.975.058 2.816Z" fill="#fbfcfc" fill-rule="evenodd" data-name="Path 201"/></g></g><defs><linearGradient x1=".5" y1="0" x2=".5" y2="1" id="b"><stop stop-color="#0067a2" offset="0"/><stop stop-color="#3d91a8" offset=".403"/><stop stop-color="#74b7ae" offset=".805"/><stop stop-color="#8ac6b1" offset="1"/></linearGradient><linearGradient x1="0" y1=".5" x2="1" y2=".5" id="c"><stop stop-color="#50b09b" offset="0"/><stop stop-color="#e9e486" offset="1"/></linearGradient><linearGradient x1=".5" y1="0" x2=".5" y2="1" id="d"><stop stop-color="#dc1b24" offset="0"/><stop stop-color="#c1203b" offset=".228"/><stop stop-color="#8a2b6c" offset=".748"/><stop stop-color="#753080" offset="1"/></linearGradient><linearGradient x1=".5" y1="0" x2=".5" y2="1" id="e"><stop stop-color="#eb7165" offset="0"/><stop stop-color="#eb7164" offset=".003"/><stop stop-color="#f9a85e" offset=".675"/><stop stop-color="#ffbe5c" offset="1"/></linearGradient><clipPath id="a"><path d="m1137.27 786.555-8.877-5.125-17.122-9.886c-.951-.549-1.898-.217-1.898.93v40.28c0 .86.677 1.23 1.503.754l17.517-10.115 8.877-5.125 8.532-4.926c1.001-.578.905-1.371.06-1.826-.845-.455-8.592-4.96-8.592-4.96Z" data-name="Path 177" transform="translate(-1109.373 -771.285)"/></clipPath></defs></svg>