<svg xmlns="http://www.w3.org/2000/svg" width="24.629" height="21.349" viewBox="175 509.999 24.629 21.349"><path d="M187.487 531.348a.988.988 0 0 1-.608-.207l-.308-.214c-.778-.54-2.6-1.808-3.813-2.745-4.61-3.584-6.961-6.169-7.406-8.13a7.461 7.461 0 0 1-.352-2.23c-.027-2.126.776-4.18 2.203-5.634 1.3-1.323 3.008-2.056 4.805-2.063h.002a7.04 7.04 0 0 1 5.239 2.288 6.945 6.945 0 0 1 5.184-2.413h.135c3.843 0 7.009 3.37 7.06 7.514a7.86 7.86 0 0 1-.315 2.325c-.373 1.884-2.724 4.608-7.16 8.244-1.723 1.417-3.111 2.464-4.132 3.11a.989.989 0 0 1-.534.155Zm-5.404-19.223a4.795 4.795 0 0 0-3.453 1.465c-1.056 1.076-1.651 2.61-1.63 4.208.008.6.1 1.177.277 1.722.21.903 1.322 2.894 6.707 7.082 1.073.83 2.67 1.946 3.517 2.536.888-.61 2.023-1.482 3.382-2.6 5.258-4.31 6.325-6.348 6.49-7.179.184-.636.263-1.22.256-1.82-.04-3.055-2.308-5.54-5.06-5.54l-.106.001c-1.795.023-3.41.995-4.324 2.6a1 1 0 0 1-.855.504h-.014a1 1 0 0 1-.856-.482c-.945-1.564-2.565-2.497-4.331-2.497Z" fill="#a191b2" fill-rule="evenodd" data-name="Path 118"/></svg>