<svg xmlns="http://www.w3.org/2000/svg" width="22.86" height="19.479" viewBox="63 23 22.86 19.479"><g data-name="Group 230"><g data-name="Group 226"><g data-name="Group 224"><path d="M85.86 32.74a.994.994 0 0 1-.19.586l-5.117 7.034a1 1 0 1 1-1.617-1.175l4.688-6.445-4.688-6.448a.998.998 0 0 1 .22-1.396.998.998 0 0 1 1.397.22l5.116 7.035c.129.173.192.38.192.589Z" fill="#fff" fill-rule="evenodd" data-name="Path 292"/></g><g data-name="Group 225"><path d="M85.86 32.74a1 1 0 0 1-1 1H69.284a1 1 0 0 1 0-2H84.86a1 1 0 0 1 1 1Z" fill="#fff" fill-rule="evenodd" data-name="Path 293"/></g></g><g data-name="Group 227"><path d="M63 41.479v-17.48a1 1 0 1 1 2 0v17.48a1 1 0 1 1-2 0Z" fill="#fff" fill-rule="evenodd" data-name="Path 294"/></g><g data-name="Group 228"><path d="M63 41.479a1 1 0 0 1 1-1h4.421a1 1 0 1 1 0 2h-4.42a1 1 0 0 1-1-1Z" fill="#fff" fill-rule="evenodd" data-name="Path 295"/></g><g data-name="Group 229"><path d="M63 24a1 1 0 0 1 1-1h4.421a1 1 0 1 1 0 2h-4.42a1 1 0 0 1-1-1Z" fill="#fff" fill-rule="evenodd" data-name="Path 296"/></g></g></svg>