<svg xmlns="http://www.w3.org/2000/svg" width="103.441" height="14.686" viewBox="1478 2461.055 103.441 14.686"><g data-name="Group 269"><g data-name="estrella-llena"><path d="m1485.72 2461.055 2.078 5.258 5.643.351-4.358 3.601 1.41 5.475-4.772-3.032-4.772 3.032 1.41-5.475-4.359-3.601 5.643-.351 2.078-5.258Z" fill="#a191b2" fill-rule="evenodd" data-name="Path 279"/></g><g data-name="estrella-llena"><path d="m1507.72 2461.055 2.078 5.258 5.643.351-4.358 3.601 1.41 5.475-4.772-3.032-4.772 3.032 1.41-5.475-4.359-3.601 5.643-.351 2.078-5.258Z" fill="#a191b2" fill-rule="evenodd" data-name="Path 279"/></g><g data-name="estrella-llena"><path d="m1529.72 2461.055 2.078 5.258 5.643.351-4.358 3.601 1.41 5.475-4.772-3.032-4.772 3.032 1.41-5.475-4.359-3.601 5.643-.351 2.078-5.258Z" fill="#a191b2" fill-rule="evenodd" data-name="Path 279"/></g><g data-name="estrella-llena"><path d="m1551.72 2461.055 2.078 5.258 5.643.351-4.358 3.601 1.41 5.475-4.772-3.032-4.772 3.032 1.41-5.475-4.359-3.601 5.643-.351 2.078-5.258Z" fill="#a191b2" fill-rule="evenodd" data-name="Path 279"/></g><g data-name="estrella-vacia"><path d="m1573.72 2461.055 2.078 5.258 5.643.351-4.358 3.601 1.41 5.475-4.772-3.032-4.772 3.032 1.41-5.475-4.359-3.601 5.643-.351 2.078-5.258Z" stroke-linejoin="round" stroke-linecap="round" stroke="#a190b2" fill="transparent" data-name="Path 280"/></g></g></svg>